<svg xmlns="http://www.w3.org/2000/svg" viewBox="0 0 32 32"><defs><style>.cls-1{fill:#fff;}</style></defs><title>CampoIcon</title><g id="Campo"><path class="cls-1" d="M31.15,8.61A9.92,9.92,0,0,0,27.83,4a5.17,5.17,0,0,0-6,0A4.81,4.81,0,0,1,23,6.21a4,4,0,0,1-.26,2.26,4.88,4.88,0,0,0-1.35-3.89c-1.75-2-5.18-1.82-5.18-1.82S12.72,2.59,11,4.58A4.87,4.87,0,0,0,9.62,8.47a4.07,4.07,0,0,1-.25-2.26A4.63,4.63,0,0,1,10.53,4a5.18,5.18,0,0,0-6,0A9.92,9.92,0,0,0,1.17,8.61C.54,10.22.86,11,1.31,11.53a26.63,26.63,0,0,1,2.74,2.4c.62.82,1.83,2.78,2.88,3.38s1.59.83,2.51.26,1-2.09.88-3.63a7.66,7.66,0,0,1,.53,3.11,3.11,3.11,0,0,1,.89.31,2.44,2.44,0,0,1,.78.58,9.67,9.67,0,0,1,.34-2.69h.06c.29,1.89.76,5.51.37,7.38a5.29,5.29,0,0,1-2.85,3.91c-.75.41-1.19.23-1.61.62s.42,1.32.42,1.32a1.41,1.41,0,0,0,1.42.44A6.84,6.84,0,0,0,15,27.08a10.87,10.87,0,0,0,3.48-5.93c.39-1.87.84-5,1-5.9h0a9.75,9.75,0,0,1,.35,2.69,2.44,2.44,0,0,1,.78-.58,3.12,3.12,0,0,1,.88-.31A7.85,7.85,0,0,1,22,13.94c-.07,1.54,0,3,.89,3.63s1.46.33,2.5-.26,2.26-2.56,2.88-3.38A27.72,27.72,0,0,1,31,11.53C31.46,11,31.78,10.22,31.15,8.61Zm-19,3.32a1,1,0,0,1,0-1.93,1,1,0,1,1,0,1.93Zm7.94,0a1,1,0,1,1,1-1A1,1,0,0,1,20.11,11.93Z"/><path class="cls-1" d="M10.7,17.86s1.37.36,1.7,1.26a6.74,6.74,0,0,1-2.57,3,6.41,6.41,0,0,1-2.58.7c-.47,0-1.74-.59-.45-1A6.15,6.15,0,0,0,10.7,17.86Z"/><path class="cls-1" d="M21.64,17.86s-1.38.36-1.7,1.26a6.73,6.73,0,0,0,2.56,3,6.45,6.45,0,0,0,2.58.7c.47,0,1.75-.59.45-1A6.11,6.11,0,0,1,21.64,17.86Z"/></g></svg>