<svg xmlns="http://www.w3.org/2000/svg" viewBox="0 0 32 32"><defs><style>.cls-1{fill:#fff;}</style></defs><title>CrabIcon</title><g id="Crab"><circle class="cls-1" cx="12.66" cy="11.89" r="1.07"/><circle class="cls-1" cx="19.42" cy="11.89" r="1.07"/><path class="cls-1" d="M31.07,21.9c-.25.18-.84,0-1.25-.55a3,3,0,0,0-3-1.58,21.32,21.32,0,0,0-3.46,1.13,10.19,10.19,0,0,1,3.39.33,4.45,4.45,0,0,1,2.61,3.06c.49,1.54,0,2-.29,2.06s-.79-.27-1-1a3,3,0,0,0-2.28-2.51,21.27,21.27,0,0,0-3.72-.13l0,0a9.15,9.15,0,0,1,2.8,1.5,4.42,4.42,0,0,1,1.28,3.81c-.13,1.62-.72,1.86-1,1.81s-.64-.54-.55-1.24a3.06,3.06,0,0,0-1.16-3.19,19.54,19.54,0,0,0-2.84-1.32,8.83,8.83,0,0,1-1.17.7,7.13,7.13,0,0,1-6.64,0,8.1,8.1,0,0,1-1.16-.7,19.05,19.05,0,0,0-2.84,1.32,3,3,0,0,0-1.16,3.19c.09.7-.24,1.2-.56,1.24s-.91-.19-1-1.81A4.41,4.41,0,0,1,7.23,24.3,9.32,9.32,0,0,1,10,22.8a.12.12,0,0,0,0-.05,22.19,22.19,0,0,0-3.72.14A3,3,0,0,0,4,25.4c-.19.68-.68,1-1,1s-.79-.52-.29-2.06a4.45,4.45,0,0,1,2.61-3.06,10.13,10.13,0,0,1,3.38-.33,20.71,20.71,0,0,0-3.46-1.13,3,3,0,0,0-3,1.58c-.41.56-1,.73-1.25.55s-.55-.77.44-2A4.46,4.46,0,0,1,5,17.9a9.83,9.83,0,0,1,3.37.89,6.12,6.12,0,0,1,0-2.05c.26-.86.86-1.9,2.9-2.72A13.86,13.86,0,0,1,16,13.31a13.84,13.84,0,0,1,4.76.71c2.05.82,2.64,1.86,2.91,2.72a6.12,6.12,0,0,1,.05,2.05,9.77,9.77,0,0,1,3.37-.89,4.48,4.48,0,0,1,3.51,2C31.61,21.13,31.34,21.71,31.07,21.9Z"/><path class="cls-1" d="M8.86,2.08A48.2,48.2,0,0,0,5.94,8.7,16.74,16.74,0,0,0,10.39,5a5.07,5.07,0,0,1-.74,4.83c-1.8,2.33-3.67,2-3.67,2s-.4,1.8,2.18,3.45a4.44,4.44,0,0,0-.79,2.06c-.87-.09-2.65-2.05-3.1-3a5.9,5.9,0,0,1-.36-3.11C2.86,10.84,2.16,8.4,3,6.37A6.27,6.27,0,0,1,8.86,2.08Z"/><path class="cls-1" d="M23.18,2.08A48.2,48.2,0,0,1,26.1,8.7,16.74,16.74,0,0,1,21.65,5a5.07,5.07,0,0,0,.74,4.83c1.81,2.33,3.67,2,3.67,2s.4,1.8-2.18,3.45a4.33,4.33,0,0,1,.79,2.06c.87-.09,2.66-2.05,3.1-3a6,6,0,0,0,.37-3.11c1.05-.41,1.74-2.85.93-4.88A6.27,6.27,0,0,0,23.18,2.08Z"/></g></svg>