<svg id="Dungeon" xmlns="http://www.w3.org/2000/svg" viewBox="0 0 32 32"><defs><style>.cls-1{fill:#fff;}</style></defs><title>DungeonIcon</title><rect class="cls-1" x="0.41" y="24.27" width="6.63" height="7.73"/><rect class="cls-1" x="1.08" y="17.66" width="5.3" height="6.27"/><rect class="cls-1" x="1.08" y="13.02" width="5.3" height="4.3"/><rect class="cls-1" x="24.89" y="24.27" width="6.63" height="7.73"/><rect class="cls-1" x="25.56" y="17.66" width="5.3" height="6.27"/><polyline class="cls-1" points="30.86 13.02 30.86 17.32 25.56 17.32 25.56 13.02"/><path class="cls-1" d="M8.25,2.54l2.28,5.09c-3.91,1.6-4.15,4.73-4.15,4.73H1.08A11.88,11.88,0,0,1,8.25,2.54Z"/><path class="cls-1" d="M19.86,1.41,18.29,6.84A20.08,20.08,0,0,0,16,6.71a15.53,15.53,0,0,0-4.7.64L9,2.23A19.72,19.72,0,0,1,16,1.1,22.69,22.69,0,0,1,19.86,1.41Z"/><path class="cls-1" d="M25.78,3.66,22.4,8.08h0A10.46,10.46,0,0,0,19.11,7l1.56-5.4A14.25,14.25,0,0,1,25.78,3.66Z"/><path class="cls-1" d="M30.86,12.36h-5.3a5.61,5.61,0,0,0-2.47-3.84l3.35-4.38A11.84,11.84,0,0,1,30.86,12.36Z"/><path class="cls-1" d="M7,17.66v6.27s1.94-1,2.77-6.27Z"/><path class="cls-1" d="M8.44,17.32a2.29,2.29,0,0,1-1.34-.4,1.69,1.69,0,0,1-.53-.59,1.46,1.46,0,0,1-.12-.85,2.39,2.39,0,0,1,.28-.71,1.79,1.79,0,0,1,.52-.58c.25-.16.45-.18.55-.27a1.61,1.61,0,0,0,.33-.52,1.27,1.27,0,0,1,0,.72c-.15.29-.4.4-.49.52a1.84,1.84,0,0,0-.26.46,2.25,2.25,0,0,0-.18.51,1,1,0,0,0,.3.87A6.21,6.21,0,0,0,8.44,17.32Z"/><path class="cls-1" d="M9,17.28a4,4,0,0,0,1.12-1.09.82.82,0,0,0,.13-.59A.94.94,0,0,0,10,15a7.62,7.62,0,0,1-.55-.64,7.69,7.69,0,0,1-.32-.8,4.88,4.88,0,0,0-.74-1.27l.48-.25a11.31,11.31,0,0,1,0,1.3,5,5,0,0,1-.1.66,1.08,1.08,0,0,1-.3.59,1.18,1.18,0,0,0,.1-.61c0-.21,0-.42-.07-.63-.05-.42-.14-.83-.2-1.27l-.11-.74.59.5a3.89,3.89,0,0,1,1,1.42c.13.24.23.63.28.71s.31.34.49.61a1.66,1.66,0,0,1,.29,1,1.39,1.39,0,0,1-.37.92A3.07,3.07,0,0,1,9,17.28Z"/><path class="cls-1" d="M24.94,17.66v6.27s-2-1-2.77-6.27Z"/><path class="cls-1" d="M23.54,17.32a5.68,5.68,0,0,0,.95-.84,1,1,0,0,0,.3-.87,2.25,2.25,0,0,0-.18-.51,1.84,1.84,0,0,0-.26-.46c-.09-.12-.34-.23-.49-.52a1.27,1.27,0,0,1,0-.72,1.61,1.61,0,0,0,.33.52c.1.09.3.11.55.27a1.68,1.68,0,0,1,.52.58,2.7,2.7,0,0,1,.29.71,1.55,1.55,0,0,1-.13.85,1.58,1.58,0,0,1-.52.59A2.31,2.31,0,0,1,23.54,17.32Z"/><path class="cls-1" d="M23,17.28a3,3,0,0,1-1.5-.79,1.35,1.35,0,0,1-.38-.92,1.66,1.66,0,0,1,.29-1c.18-.27.41-.45.49-.61s.15-.47.28-.71a3.89,3.89,0,0,1,1-1.42l.6-.5-.12.74c-.06.44-.14.85-.2,1.27,0,.21-.06.42-.07.63a1.3,1.3,0,0,0,.11.61,1,1,0,0,1-.31-.59,5,5,0,0,1-.1-.66c0-.44,0-.88,0-1.3l.48.25a4.88,4.88,0,0,0-.74,1.27,7.69,7.69,0,0,1-.32.8A7.62,7.62,0,0,1,22,15a.94.94,0,0,0-.23.56.82.82,0,0,0,.13.59A4.16,4.16,0,0,0,23,17.28Z"/></svg>