<svg id="Horse" xmlns="http://www.w3.org/2000/svg" viewBox="0 0 32 32"><defs><style>.cls-1{fill:#fff;}.cls-2{fill:none;stroke:#fff;stroke-miterlimit:10;}</style></defs><title>HorseIcon</title><path class="cls-1" d="M29.22,18.31,16.48,9s.7-4.29-2.36-6.34a7.07,7.07,0,0,0-2.33,6.59l-10.14,8a2.14,2.14,0,0,0-.48,2.81l1.31,2.09a1.15,1.15,0,0,0,.94.53h1.4A4.28,4.28,0,0,0,6.2,22.5l9.24-3a.82.82,0,0,1,.94.31L20.84,26a.91.91,0,0,0,1.33.15l3.46-3,3.68-3.88A.68.68,0,0,0,29.22,18.31ZM11.48,15a1.29,1.29,0,1,1,1.28-1.29A1.28,1.28,0,0,1,11.48,15Z"/><path class="cls-2" d="M29.33,18.67l1.83-1.42S25.52,6.79,16.24,5.16A10.33,10.33,0,0,1,16.48,9Z"/><path class="cls-1" d="M12.38,5.48c.07-.2-.46-.16-.67-.14a8,8,0,0,1-4-.39A5.78,5.78,0,0,0,10.39,7S7.13,8.57,5.19,8.48a25.92,25.92,0,0,0,6.16.63c.22,0,.88,0,.87-.27A9.39,9.39,0,0,1,12.38,5.48Z"/><line class="cls-2" x1="18.23" y1="10.31" x2="18.33" y2="5.69"/><line class="cls-2" x1="20.04" y1="11.6" x2="20.53" y2="6.6"/><line class="cls-2" x1="22.09" y1="13.1" x2="22.78" y2="7.93"/><line class="cls-2" x1="23.92" y1="14.44" x2="24.61" y2="9.33"/><line class="cls-2" x1="25.58" y1="15.65" x2="26.59" y2="11.19"/><line class="cls-2" x1="27.48" y1="17.04" x2="28.44" y2="13.3"/></svg>