<svg id="Keep" xmlns="http://www.w3.org/2000/svg" viewBox="0 0 32 32"><defs><style>.cls-1{fill:#fff;}</style></defs><title>KeepIcon</title><path class="cls-1" d="M32,11.8V32H18.6V27.69A2.59,2.59,0,0,0,16,25.1v-6h.76v1h1.52v-1H19.4v1h1.36V19.12h1.09v1.05H23V13.63h-.62V11.8h1.08v1.14h.71V11.8h.93v1.14h.71V11.8h.89v1.14h.81V11.8l.81,0V13l.8,0V11.8h.82V13h.78V11.8Z"/><path class="cls-1" d="M16,19.15v6a2.59,2.59,0,0,0-2.6,2.59V32H0V11.8H1.28V13h.78V11.8h.82V13l.8,0V11.82l.81,0v1.14H5.3V11.8h.89v1.14H6.9V11.8h.93v1.14h.71V11.8H9.62v1.83H9v6.54h1.15V19.12h1.09v1.07H12.6v-1h1.12v1h1.52v-1Z"/><polygon class="cls-1" points="16 18.87 15.01 18.87 15.01 19.89 13.94 19.89 13.94 18.87 12.41 18.87 12.41 19.89 11.44 19.89 11.44 18.87 11.44 5.77 10.98 5.31 10.98 3.35 12.18 3.35 12.18 4.7 12.96 4.7 12.96 3.61 14.04 3.61 14.04 4.7 14.85 4.7 14.85 3.61 16 3.61 16 18.87"/><polygon class="cls-1" points="16 18.87 16.99 18.87 16.99 19.89 18.06 19.89 18.06 18.87 19.59 18.87 19.59 19.89 20.56 19.89 20.56 18.87 20.56 5.77 21.02 5.31 21.02 3.35 19.82 3.35 19.82 4.7 19.04 4.7 19.04 3.61 17.96 3.61 17.96 4.7 17.15 4.7 17.15 3.61 16 3.61 16 18.87"/></svg>