<svg id="Lykiator" xmlns="http://www.w3.org/2000/svg" viewBox="0 0 32 32"><defs><style>.cls-1{fill:#fff;}</style></defs><title>LykiatorIcon</title><path class="cls-1" d="M30.53,13.27c-1.07,2.13-5.93,1.18-7-.07S20,8.63,18.12,8c.59,1.31.26,2.2-.95.37S9.16,3.73,8.32.77A9.94,9.94,0,0,0,9.48,8.19C7.49,5.81,1.41,3.69.6,3.58a21.82,21.82,0,0,1,4.17,8.3c.18,1.32,1.79,6.3,4.31,7.61-2.74-.11-2.89,1.69-5,1.13S1.23,19.93.6,18.84c.15,3.91,4.57,6.47,7.13,6.43-.39.84-2.81,1.43-3.83,1.28,2.77,1.2,4.68,1.87,10.79,1.61s9.5.15,11.23,3.07c1.74-.55,4.2-7.13,3.14-5.37s-2.6,1.65-3.33,1.17a1.93,1.93,0,0,1-.37-2.41c-1,1.17-4.09.47-5-.3s-4.61-4.09-5-5.27c1.42,1.28,7.38-.32,9.79-.25a1.7,1.7,0,0,1,1.62,1.43c.62-1,3.62-1.25,3.81,1.09,0,0,.8-.62.87-4.13A11.87,11.87,0,0,0,30.53,13.27ZM20.42,14.46a1.25,1.25,0,1,1-.15-1.76A1.25,1.25,0,0,1,20.42,14.46Z"/></svg>