<svg id="Sator" xmlns="http://www.w3.org/2000/svg" viewBox="0 0 32 32"><defs><style>.cls-1{fill:#fff;}</style></defs><title>SatorIcon</title><path class="cls-1" d="M17.66,13.6s.11.7-.45.93a2,2,0,0,1-1.92,0c-.79-.42-1.09-.85-1.07-1.18A2,2,0,0,1,14.58,12a3.39,3.39,0,0,1,1.53.39c-.36.54-.45,1.86-.05,2s1-.87,1.06-1.34A2.41,2.41,0,0,1,17.66,13.6Z"/><path class="cls-1" d="M30.84,14.65a3.21,3.21,0,0,0-2.27-1.31c-.62-.07-1.06.67-1.59.57a18.33,18.33,0,0,1-3.77-1c-1.65-.64-1.49-.89-2.29-1.8S19.3,9.56,18.5,9.71a4.68,4.68,0,0,1-2.43-.34,15.48,15.48,0,0,0-5.59,0C8,9.69,6.61,10.91,5.06,12.49s-2.56,5.94-2.69,7.6A10.9,10.9,0,0,1,1.28,23.6c-2.39,2.53.12,2,3.35,3s9.35,5.62,10.47,4A6.27,6.27,0,0,0,11.68,26c-1.14-.45-3.13-1-4.43-2.3a4.31,4.31,0,0,1-.87-3.48A6.31,6.31,0,0,0,9.1,23.6c2.09,1.24,5.71.42,8,0a80.51,80.51,0,0,1,8.66-.51,4.36,4.36,0,0,0,3.58-1.69c.45-.48,1.26-1.86.87-2.26-.32.13-.25.23-.8.26s-.62,0-.78.49c-.61,1.13-1.88,1.49-3.49,1.49a34.07,34.07,0,0,1-4.13-.4c-.74-.06-1.49.27-2.62.17A5.05,5.05,0,0,1,15.74,20a11.08,11.08,0,0,0-2.48-1.48A6.1,6.1,0,0,0,8.87,19c0-.72,1.94-1.84,3.49-1.91S16.59,18.6,19,18.18s3.71.12,6.46.48A9.91,9.91,0,0,0,31,18C32.25,17.5,31.48,15.6,30.84,14.65ZM19,14.77a1.13,1.13,0,0,0-.94.23,2.67,2.67,0,0,1-1.94.7,3.26,3.26,0,0,1-2.29-.9A2.34,2.34,0,0,1,13,13.09c0-.48-.29-.37-.81-.4s-.44-.31,0-.85A3.19,3.19,0,0,1,15,11a5.45,5.45,0,0,1,3.31,2.07,3.41,3.41,0,0,0,1.62,1.37C20.28,14.61,19.65,14.87,19,14.77Zm10.84,1.34c-.08.3-.49.08-.63,0a6.87,6.87,0,0,0-1.05-.63.48.48,0,0,1,.18-.88c.52-.13,1.2.67,1.2.67A.93.93,0,0,1,29.84,16.11Z"/><path class="cls-1" d="M16.86,19.89s.1-.63.42-.68c.29.13.31,1,.31,1A1.53,1.53,0,0,1,16.86,19.89Z"/><path class="cls-1" d="M18.82,20.37s.42-1.43.89-1.65c.56.28.58,1.56.58,1.56A3,3,0,0,1,18.82,20.37Z"/><path class="cls-1" d="M21.41,20.27s.2-1.17.67-1.3c.56.37.45,1.51.45,1.51A3.61,3.61,0,0,0,21.41,20.27Z"/><path class="cls-1" d="M23.82,20.61s.09-1.16.71-1.27c.55.21.7,1.35.7,1.35A13.7,13.7,0,0,1,23.82,20.61Z"/><path class="cls-1" d="M26.08,20.69a4.08,4.08,0,0,0,.46-.72.77.77,0,0,1,.48-.48c.27.11.31.9.31.9S27.11,20.63,26.08,20.69Z"/><path class="cls-1" d="M14.4,8.11a4.66,4.66,0,0,0-2.25-2c-1.71-.8-1.82-.75-2-.66s.05.6.4,1a5.24,5.24,0,0,1,.68,1.67A12,12,0,0,1,14.4,8.11Z"/><path class="cls-1" d="M9.92,8.2A5.67,5.67,0,0,0,7.53,6.7C6,6.23,5.45,6.27,5.3,6.45s.07.48.49.89A6.31,6.31,0,0,1,7,9.25,8.24,8.24,0,0,1,9.92,8.2Z"/><path class="cls-1" d="M5.8,10.25a4.86,4.86,0,0,0-2-.34c-1.21,0-1.33.24-1,.59a5,5,0,0,1,1,1.13,3.07,3.07,0,0,0,.3.54A10.27,10.27,0,0,1,5.8,10.25Z"/><path class="cls-1" d="M3,14a5.05,5.05,0,0,0-1.38.37c-.72.3-.82.5-.58.71a9.05,9.05,0,0,1,1.16,1.1A7,7,0,0,1,3,14Z"/><path d="M17.21,14.53a2,2,0,0,1-1.92,0c-.79-.42-1.09-.85-1.07-1.18A2,2,0,0,1,14.58,12a3.39,3.39,0,0,1,1.53.39c-.36.54-.45,1.86-.05,2s1-.87,1.06-1.34a2.41,2.41,0,0,1,.54.55S17.77,14.3,17.21,14.53Z"/><path class="cls-1" d="M17.21,14.53a2,2,0,0,1-1.92,0c-.79-.42-1.09-.85-1.07-1.18A2,2,0,0,1,14.58,12a3.39,3.39,0,0,1,1.53.39c-.36.54-.45,1.86-.05,2s1-.87,1.06-1.34a2.41,2.41,0,0,1,.54.55S17.77,14.3,17.21,14.53Z"/></svg>