<svg id="Layer_1" data-name="Layer 1" xmlns="http://www.w3.org/2000/svg" viewBox="0 0 32 32"><defs><style>.cls-1{fill:#fff;}</style></defs><title>SHIcon</title><path class="cls-1" d="M31,19.73H21.93c-.27,4.17-.52,8.14-.78,12.26H31.88C31.58,27.79,31.29,23.82,31,19.73Zm-3.2,8.14H25.22V24h2.59Z"/><path class="cls-1" d="M9.84,19.5c-3.21.11-6.06-.15-9,.22C.56,23.93.3,27.81,0,32a84.65,84.65,0,0,0,10.8,0C10.47,27.6,10.16,23.63,9.84,19.5ZM4.08,28.07c-.46-2-.53-3.54,1.19-4.62C7.32,24.37,6.83,26,7,27.83Z"/><path class="cls-1" d="M14,31.93l-1.31.18a68.88,68.88,0,0,1-1-12.42h8.75c-.29,4.15-.57,8.12-.85,12.21l-1.77.2c-.12-1.49-.22-2.88-.33-4.33-.29-.29-.54-.69-.87-.81a7.2,7.2,0,0,0-1.75-.12Z"/><path class="cls-1" d="M10.85,17.58H.09A20.2,20.2,0,0,1,0,10l1.59-.29,1,2.8,1.22.22c.27-1,.51-1.84.8-2.85l1.53-.12.82,2.74c2.33.86,1.24-1.89,2.3-2.68l1.62.16Z"/><path class="cls-1" d="M25.59,9.84l1.65-.12.68,2.69,1.44.21.69-2.79L32,10v7c-1.84.82-6.37,1-10.53.47-.64-2.26-.69-3.88-.2-7.58l1.67-.13c.28,1,.53,1.9.77,2.78h1.15Z"/></svg>