<svg xmlns="http://www.w3.org/2000/svg" viewBox="0 0 32 32"><defs><style>.cls-1{fill:#fff;}</style></defs><title>SkullIcon</title><g id="Skull"><path class="cls-1" d="M27.5,7.38c-.8-2-2.51-3.76-5.14-5.23A13.67,13.67,0,0,0,16.18.82h-.43A13.67,13.67,0,0,0,9.57,2.15C6.93,3.62,5.22,5.33,4.43,7.38a12.55,12.55,0,0,0-1,5.55c.16,1.38.6,3,.61,4a11.86,11.86,0,0,1-.26,2.74,4,4,0,0,0,.28,2.8,4.67,4.67,0,0,0,3.64,3.11c2,.28,2.59-.09,2.54,1.3s-.15,2.61,1.48,3.25a13.25,13.25,0,0,0,4,.62h.43a13.21,13.21,0,0,0,4-.62c1.64-.64,1.53-1.85,1.48-3.25s.58-1,2.55-1.3a4.68,4.68,0,0,0,3.64-3.11,4,4,0,0,0,.27-2.8,13.1,13.1,0,0,1-.26-2.74c0-1,.45-2.62.62-4A12.7,12.7,0,0,0,27.5,7.38Zm-15.43,15A4.26,4.26,0,0,1,8,22.16a3.48,3.48,0,0,1-1.46-2.72,2.91,2.91,0,0,1,3.36-2.86,6.12,6.12,0,0,1,3.72,2C15.08,20.35,13.38,21.81,12.07,22.4Zm5.16,3.11c-.45,0-.57-.14-.67-.26A1,1,0,0,0,15.9,25c-.26,0-.38.09-.64.32a.92.92,0,0,1-1.17,0,.81.81,0,0,1-.29-.9l1.33-3a.89.89,0,0,1,.8-.56.8.8,0,0,1,.76.41,20.85,20.85,0,0,1,1.4,3.37A.85.85,0,0,1,17.23,25.51Zm6.64-3.35a4.26,4.26,0,0,1-4.1.24c-1.3-.59-3-2-1.52-3.83a6.13,6.13,0,0,1,3.73-2,2.9,2.9,0,0,1,3.35,2.86A3.45,3.45,0,0,1,23.87,22.16Z"/></g></svg>