<svg xmlns="http://www.w3.org/2000/svg" viewBox="0 0 32 32"><defs><style>.cls-1{fill:#fff;}.cls-2{fill:#e0e0e0;}</style></defs><title>SwordIcon</title><g id="Sword"><polygon class="cls-1" points="5.23 15.02 6.58 16.4 6.58 18.3 8.48 20.64 11.43 20.64 11.43 23.26 13.64 25.55 15.68 25.41 17.16 26.87 16.12 27.75 15.15 26.65 12.48 27.26 7.52 24.5 4.87 19.46 5.51 16.95 4.43 15.82 5.23 15.02"/><polygon class="cls-1" points="6.42 24.06 7 24.94 8.01 25.63 5.18 28.47 4.68 27.2 3.52 26.68 6.42 24.06"/><polygon class="cls-1" points="2.28 27.04 4.16 27.75 4.84 29.82 2.83 31.7 0.9 31.14 0.27 29.08 2.28 27.04"/><polygon class="cls-1" points="8.92 19.37 12.54 19.65 12.54 23.12 30.97 9.12 31.5 0.41 22.98 0.94 8.92 19.37"/><polygon class="cls-2" points="31.5 0.41 12.54 19.65 8.92 19.37 22.98 0.94 31.5 0.41"/></g></svg>