<svg xmlns="http://www.w3.org/2000/svg" viewBox="0 0 32 32"><defs><style>.cls-1{fill:#fff;}</style></defs><title>TbirdIcon</title><g id="TBird"><path class="cls-1" d="M23.29,7.36s4.18.49,6.18,3.87A7,7,0,0,1,28.84,19c.09-2.43-1.92-4-4.28-4.2a25.83,25.83,0,0,0-8.19,1.08,9.64,9.64,0,0,0,2.69-2.4,6,6,0,0,0,1.31-2.72A3.49,3.49,0,0,0,23.29,7.36Z"/><path class="cls-1" d="M15,17.63s1.69-1,7.11-1.65c3.17-.39,3.85.43,3.85.43a16.6,16.6,0,0,1-5.7,2.51C16.68,19.79,14.94,17.88,15,17.63Z"/><circle class="cls-1" cx="17.12" cy="10.84" r="1"/><path class="cls-1" d="M12.15,8.25A5.67,5.67,0,0,1,15,8.14a10.63,10.63,0,0,1,3.27,1c.83.38,2.14.83,3.12-.14s1.15-2.24-.09-3.11a13.27,13.27,0,0,0-4.68-1.59c-1.19-.19-1.34-.19-1.34-.19a11.24,11.24,0,0,0-5.38-4,16.94,16.94,0,0,1,1.32,4.09c-.63-.6-4.48-1.92-7-1.89A13.59,13.59,0,0,1,8,6.05,23.86,23.86,0,0,0,1.61,7,13.14,13.14,0,0,1,5.75,8.62c-.83.58-2.89,3.86-3.28,6.52a11.4,11.4,0,0,0,2,8.38c2,2.95,2.35,4.51,1.6,6.07a11,11,0,0,1-1.15,2.05H19.22a14.61,14.61,0,0,0-1.54-5.44,17.42,17.42,0,0,0-4-4.51c-.54-.43-2.14-1.67-2.3-2.43a5.9,5.9,0,0,0,4.66.59c-1-.31-2.47-1.48-2.4-2.78S15.3,14.92,16,14.62a5.3,5.3,0,0,0,1.5-1.15,3.27,3.27,0,0,1-1.61-.05,2.87,2.87,0,0,1-1.87-2,3,3,0,0,1,.45-2.38A4.33,4.33,0,0,0,12.15,8.25Z"/></g></svg>