<svg id="Torch" xmlns="http://www.w3.org/2000/svg" viewBox="0 0 32 32"><defs><style>.cls-1{fill:#fff;}</style></defs><title>TorchIcon</title><path class="cls-1" d="M25.94.53a3.43,3.43,0,0,0-3.05,1.72c-.92,1.8-1.52,2.82-2.47,3.18a3.17,3.17,0,0,0-.26-2.92c-.06,1-1.23,2.67-2.38,3.75a5,5,0,0,0,.48,7c-.5-2.39.39-3.92,1.7-4.54a2.39,2.39,0,0,0-.47,1.73,2.27,2.27,0,0,1,1.44-1.52c1.12-.31,1.64-.83,1.76-1.73.66.29.7,1.38.3,2.1s-.55,1.4-.27,1.78A1.17,1.17,0,0,1,24,10.14c-.68.39-.74,1.84-.81,2.35A3.64,3.64,0,0,1,20.45,15a5.49,5.49,0,0,0,5.72-2.12c1-1.63,1.61-4.76,1-6.51a3.87,3.87,0,0,1-1.8,2.87,4.49,4.49,0,0,0-.05-4.43A5.34,5.34,0,0,1,25.94.53Z"/><rect class="cls-1" x="13.49" y="13.82" width="8.71" height="2.31" rx="0.89" transform="translate(15.81 -8.24) rotate(45)"/><path class="cls-1" d="M14.62,14.24l3.89,3.89-14,12.21a1.44,1.44,0,0,1-2-.07h0a1.45,1.45,0,0,1-.07-2Z"/></svg>