<svg id="Layer_1" data-name="Layer 1" xmlns="http://www.w3.org/2000/svg" viewBox="0 0 32 32"><defs><style>.cls-1{fill:#fff;}</style></defs><title>TowerIcon</title><path class="cls-1" d="M27.29,32.52H18.75c-.2-2.6-.38-5.08-.56-7.49-2.1-1.43-2.1-1.43-4.36,0-.11,2.19-.23,4.57-.36,7.06-2.66,1-5.25.46-8.26.39-.22-6.15.94-11.95,1.49-18H25.46C26.06,20.34,26.65,26.19,27.29,32.52Z"/><path class="cls-1" d="M20.87,3.86c.26-1.31.47-2.39.75-3.79H27.3V11.28c-7.55.37-15,.22-22.6,0V.07h5.77L11,3.48,12.46,4c.27-1.38.51-2.56.78-4h5.21C19.9.83,18.26,3.2,20.87,3.86Z"/></svg>