<svg xmlns="http://www.w3.org/2000/svg" viewBox="0 0 32 32"><defs><style>.cls-1{fill:#fff;}</style></defs><title>TurtleIcon</title><g id="Turtle"><path class="cls-1" d="M9.23,14.53a3.73,3.73,0,0,0,0-2.77A3.64,3.64,0,0,0,5.46,9.29,4.41,4.41,0,0,0,2,11.47a4.31,4.31,0,0,0-.78,2.77c.08.78.69.76,1,.76a3.51,3.51,0,0,1,1.63.62,23.45,23.45,0,0,1,2.82,2.56A9.29,9.29,0,0,0,9,19.85c.17,0,.3-.15.24-.36C8.05,18.46,8.93,15.22,9.23,14.53ZM4.75,13.32a.88.88,0,1,1,0-1.76.88.88,0,0,1,0,1.76Z"/><path class="cls-1" d="M10.39,14.17a9.83,9.83,0,0,1,1.72-3.09,6.82,6.82,0,0,1,2.58-1.95l1.62,2.31-1.69,2.74Z"/><path class="cls-1" d="M15.65,8.69a8.47,8.47,0,0,1,3-.56,9.54,9.54,0,0,1,3.7.47L21,10.78H17.09Z"/><path class="cls-1" d="M23.35,8.93a7.64,7.64,0,0,1,2.73,1.93,7.1,7.1,0,0,1,1.57,2.5l-.71.82H23.57l-1.83-2.79Z"/><polygon class="cls-1" points="17.2 11.88 20.8 11.84 22.66 14.77 20.84 17.58 17.26 17.61 15.43 14.78 17.2 11.88"/><path class="cls-1" d="M10.07,15.2s-.82,2.28-.21,3.31,2.66,2,4.85,2.33c.56-.82,1.69-2.7,1.69-2.7l-1.87-2.87Z"/><path class="cls-1" d="M15.78,21a22.94,22.94,0,0,0,3.49.24c1.68-.05,3.08-.2,3.08-.2l-1.65-2.7H17.31Z"/><path class="cls-1" d="M21.66,18.12l1.77,2.79a10.71,10.71,0,0,0,3.44-1c1.7-.87,1.8-1.85,1.85-2.3-.33-.44-1.86-2.3-1.86-2.3H23.5Z"/><path class="cls-1" d="M28.11,14.53l-.42.4s.77.68.77.64A2.79,2.79,0,0,0,28.11,14.53Z"/><path class="cls-1" d="M29.58,18.51a3.55,3.55,0,0,1-.75,1.18,4.3,4.3,0,0,1-1.07.85,1.61,1.61,0,0,0-.23.63,5.65,5.65,0,0,0,2.37-.93c1.18-.82,1.84-1.9.74-1.75A10.56,10.56,0,0,1,29.58,18.51Z"/><path class="cls-1" d="M26.46,21.17a7.3,7.3,0,0,1-1.72.55c-1.13.23-2.14.36-2.14.36A3.65,3.65,0,0,0,24,24.58a5.06,5.06,0,0,0,2.93,1c.67,0,1.43-.19,1.47-.87s-.73-1.13-1.1-1.69A4.16,4.16,0,0,1,26.46,21.17Z"/><path class="cls-1" d="M10,20.14a3.82,3.82,0,0,0,1.52.92,14.06,14.06,0,0,0,1.83.54s-.37.28-.39.54a5.31,5.31,0,0,0,.62,2c.32.46.56,1.41.18,1.85s-1.9.38-3-.21A3.66,3.66,0,0,1,9.07,22.8,4.25,4.25,0,0,1,10,20.14Z"/></g></svg>