<svg id="Village" xmlns="http://www.w3.org/2000/svg" viewBox="0 0 32 32"><defs><style>.cls-1{fill:#fff;}</style></defs><title>VillageIcon</title><path class="cls-1" d="M10.17.94c-1.07,3-6.31,9.7-6.31,9.7s2.32,1.91,2.32,7.59a15.4,15.4,0,0,1-2.48,8.9H7.92V24.87H6.78L10,17l4.15.06c.23-4.64,2.15-6.51,2.15-6.51S11.24,4,10.17.94Zm.93,14.94H9.36V14.15H11.1Zm-1-4a9.37,9.37,0,0,1-4.25-.76,26.16,26.16,0,0,0,4.17.38,26.16,26.16,0,0,0,4.17-.38A8.32,8.32,0,0,1,10.1,11.85Z"/><path class="cls-1" d="M8.34,24.87v4.68h2.31V26.2h2.41v3.35H20.3V24.87Zm9.11,3.34H15.63V26.39h1.82Z"/><polygon class="cls-1" points="18.48 17.46 10.33 17.34 7.28 24.54 21.28 24.54 18.48 17.46"/><path class="cls-1" d="M21,23l.74,1.84H20.63v3.34h8.93L29.11,23Zm4.59,3H24V24.36h1.66Z"/><polygon class="cls-1" points="29.59 19.82 29.59 22.73 20.93 22.73 19.78 19.82 29.59 19.82"/><path class="cls-1" d="M16.42,16.89v.24l2.36,0,.9,2.32h9.43V16.89Zm5.12,1.9H20.3V17.55h1.24Zm3.77,0H24.06V17.55h1.25Z"/><path class="cls-1" d="M16.38,16.41H29.62a.62.62,0,0,0,.57-.88l-2.78-6A1,1,0,0,0,26.53,9H19.12a1,1,0,0,0-.88.57L17,12.31a4.74,4.74,0,0,0-.31.92L16,16A.36.36,0,0,0,16.38,16.41Z"/></svg>